<?xml version="1.0" encoding="UTF-8"?>
<svg xmlns="http://www.w3.org/2000/svg" width="24" height="24" viewBox="0 0 24 24" aria-hidden="true">
  <defs>
    <linearGradient id="metal" x1="0" y1="0" x2="1" y2="1">
      <stop offset="0" stop-color="#f1f3f5"/>
      <stop offset="0.35" stop-color="#cfd4da"/>
      <stop offset="0.6" stop-color="#aeb6bf"/>
      <stop offset="1" stop-color="#e6eaee"/>
    </linearGradient>
    <linearGradient id="edge" x1="0" y1="0" x2="0" y2="1">
      <stop offset="0" stop-color="rgba(255,255,255,0.9)"/>
      <stop offset="1" stop-color="rgba(0,0,0,0.25)"/>
    </linearGradient>
    <filter id="shadow" x="-30%" y="-30%" width="160%" height="160%">
      <feDropShadow dx="0" dy="2" stdDeviation="1.6" flood-color="rgba(0,0,0,0.35)"/>
    </filter>
  </defs>

  <!-- Pencil/Edit icon, metallic -->
  <g filter="url(#shadow)">
    <path d="M5 19h4.2l9.6-9.6a2.2 2.2 0 0 0 0-3.1l-1.1-1.1a2.2 2.2 0 0 0-3.1 0L5 14.8V19Z" fill="url(#metal)"/>
    <path d="M5.7 18.3h3.1l9.2-9.2a1.4 1.4 0 0 0 0-2l-1.1-1.1a1.4 1.4 0 0 0-2 0l-9.2 9.2v3.1Z" fill="rgba(0,0,0,0.06)"/>
    <path d="M14.2 6.2l3.6 3.6" stroke="rgba(255,255,255,0.55)" stroke-width="1.4" stroke-linecap="round"/>
    <path d="M5 19h4.2l9.6-9.6a2.2 2.2 0 0 0 0-3.1l-1.1-1.1a2.2 2.2 0 0 0-3.1 0L5 14.8V19Z" fill="none" stroke="url(#edge)" stroke-width="1"/>
  </g>

  <!-- Small spark highlight -->
  <path d="M18.8 4.2l.5 1.4 1.4.5-1.4.5-.5 1.4-.5-1.4-1.4-.5 1.4-.5.5-1.4Z" fill="rgba(255,255,255,0.65)"/>
</svg>
